<svg xmlns="http://www.w3.org/2000/svg" xmlns:xlink="http://www.w3.org/1999/xlink" id="prefix__Layer_1" x="0" y="0" version="1.1" viewBox="0 0 64 64" xml:space="preserve"><style>.prefix__st0{display:none}.prefix__st1{display:inline}.prefix__st6{opacity:.35;fill:none;stroke:#fff;stroke-width:1.5;stroke-linecap:round;stroke-miterlimit:10}.prefix__st7{fill:#fff}.prefix__st8{fill:#120223}.prefix__st9{fill:#5c00d3}.prefix__st11{fill:#615777}.prefix__st12{fill:#2f2549}.prefix__st16{opacity:.2;fill:#fff}</style><g id="prefix__Qactive" class="prefix__st0"><g class="prefix__st1"><defs><path id="prefix__SVGID_1_" d="M12.2 55.7L3.7 43.2c-.5-.7-.7-1.6-.5-2.5l6-20.5c1.6-6.5 7.5-9.2 14.2-9.2l14.3.7c1.3.1 2.5.6 3.5 1.5l14.3 12.9c2.1 1.9 3.5 4.4 4.1 7.2L61.8 44c.1.6 0 1.3-.3 1.9l-4 9.4c-.5 1.1-1.6 1.7-2.8 1.7H14.8c-1 0-2-.5-2.6-1.3z"/></defs><use fill="#f05" overflow="visible" xlink:href="#prefix__SVGID_1_"/><clipPath id="prefix__SVGID_2_"><use overflow="visible" xlink:href="#prefix__SVGID_1_"/></clipPath><g clip-path="url(#prefix__SVGID_2_)"><path fill="#8c0033" d="M11 55l1.3 2H56.6l1.4-2z"/><path fill="#ff507e" d="M44.6 14.2c-4.4-.5-20.5-1.7-24.2 1.3-4.2 3.4-7.5 23.5-7.5 25.5 0 1.7 2.8 10.9 3.7 14H11c-1 0-1 .8-1.5 0L1.7 43.9c-.5-.7-.7-1.6-.5-2.5l8-21.2c1.6-6.5 6.7-10.6 13.5-10.6h9.8c1 0 5.4.7 6 1.5l6.1 3.1z"/><path fill="#d30041" d="M62.6 45.6L59 53.2c-.5 1 .9 1.7-.3 1.7H27.5c7.9-1.1 18-2.5 20.9-2.5 5 0 6.5-5.1 6.5-6.5 0-2 0-7-2-9s-5.5-1.5-10.5-2.5-7-11-6-13c.7-1.3 5.1-6.1 6.4-7.4l13 10.6c2.6.8 4.4 3 4.8 5.7l2.2 13.5c.2.6.1 1.3-.2 1.8z"/><path d="M12.3 19.5s2-5 7-6" class="prefix__st6"/></g></g><g id="prefix__EyesOpen_1_" class="prefix__st1"><circle cx="19.7" cy="30.3" r="6.5" class="prefix__st7"/><circle cx="19.7" cy="30.3" r="3.3" class="prefix__st8"/><circle cx="38.2" cy="30.3" r="6.5" class="prefix__st7"/><circle cx="38.2" cy="30.3" r="3.3" class="prefix__st8"/><circle cx="19.7" cy="30.3" r="1.3" class="prefix__st9"/><circle cx="38.5" cy="30.3" r="1.3" class="prefix__st9"/></g></g><g id="prefix__Qenergized_1_" class="prefix__st0"><g class="prefix__st1"><defs><path id="prefix__SVGID_3_" d="M12.2 55.7L3.7 43.2c-.5-.7-.7-1.6-.5-2.5l6-20.5c1.6-6.5 7.5-9.2 14.2-9.2l14.3.7c1.3.1 2.5.6 3.5 1.5l14.3 12.9c2.1 1.9 3.5 4.4 4.1 7.2L61.8 44c.1.6 0 1.3-.3 1.9l-4 9.4c-.5 1.1-1.6 1.7-2.8 1.7H14.8c-1 0-2-.5-2.6-1.3z"/></defs><use fill="#44375e" overflow="visible" xlink:href="#prefix__SVGID_3_"/><clipPath id="prefix__SVGID_4_"><use overflow="visible" xlink:href="#prefix__SVGID_3_"/></clipPath><g clip-path="url(#prefix__SVGID_4_)"><path d="M11 55l.9 2H57.2l1.3-2z" class="prefix__st8"/><path d="M44.6 14.2c-4.4-.5-20.5-1.7-24.2 1.3-4.2 3.4-7.5 23.5-7.5 25.5 0 1.7 2.8 10.9 3.7 14H11c-1 0-1 .8-1.5 0L1.7 43.9c-.5-.7-.7-1.6-.5-2.5l8-21.2c1.6-6.5 6.7-10.6 13.5-10.6h9.8c1 0 5.4.7 6 1.5l6.1 3.1z" class="prefix__st11"/><path d="M62.6 45.6L59 53.2c-.5 1 .9 1.7-.3 1.7H27.5c7.9-1.1 18-2.5 20.9-2.5 5 0 6.5-5.1 6.5-6.5 0-2 0-7-2-9s-5.5-1.5-10.5-2.5-7-11-6-13c.7-1.3 5.1-6.1 6.4-7.4l13 10.6c2.6.8 4.4 3 4.8 5.7l2.2 13.5c.2.6.1 1.3-.2 1.8z" class="prefix__st12"/><path d="M12.3 19.5s2-5 7-6" class="prefix__st6"/></g></g><g id="prefix__EyesOpen_2_" class="prefix__st1"><circle cx="19.7" cy="30.3" r="6.5" class="prefix__st7"/><circle cx="19.7" cy="30.3" r="3.3" class="prefix__st8"/><circle cx="38.2" cy="30.3" r="6.5" class="prefix__st7"/><circle cx="38.2" cy="30.3" r="3.3" class="prefix__st8"/><circle cx="19.7" cy="30.3" r="1.3" class="prefix__st9"/><circle cx="38.5" cy="30.3" r="1.3" class="prefix__st9"/></g></g><g id="prefix__Qregular"><defs><path id="prefix__SVGID_5_" d="M12.2 55.7L3.7 43.2c-.5-.7-.7-1.6-.5-2.5l6-20.5c1.6-6.5 7.5-9.2 14.2-9.2l14.3.7c1.3.1 2.5.6 3.5 1.5l14.3 12.9c2.1 1.9 3.5 4.4 4.1 7.2L61.8 44c.1.6 0 1.3-.3 1.9l-4 9.4c-.5 1.1-1.6 1.7-2.8 1.7H14.8c-1 0-2-.5-2.6-1.3z"/></defs><use fill="#44375e" overflow="visible" xlink:href="#prefix__SVGID_5_"/><clipPath id="prefix__SVGID_6_"><use overflow="visible" xlink:href="#prefix__SVGID_5_"/></clipPath><g clip-path="url(#prefix__SVGID_6_)"><path d="M11 55l1.3 2H57.2l1.3-2z" class="prefix__st8"/><path d="M44.6 14.2c-4.4-.5-20.5-1.7-24.2 1.3-4.2 3.4-7.5 23.5-7.5 25.5 0 1.7 2.8 10.9 3.7 14H11c-1 0-1 .8-1.5 0L1.7 43.9c-.5-.7-.7-1.6-.5-2.5l8-21.2c1.6-6.5 6.7-10.6 13.5-10.6h9.8c1 0 5.4.7 6 1.5l6.1 3.1z" class="prefix__st11"/><path d="M62.6 45.6L59 53.2c-.5 1 .9 1.7-.3 1.7H27.5c7.9-1.1 18-2.5 20.9-2.5 5 0 6.5-5.1 6.5-6.5 0-2 0-7-2-9s-5.5-1.5-10.5-2.5-7-11-6-13c.7-1.3 5.1-6.1 6.4-7.4l13 10.6c2.6.8 4.4 3 4.8 5.7l2.2 13.5c.2.6.1 1.3-.2 1.8z" class="prefix__st12"/><path d="M12.3 19.5s2-5 7-6" class="prefix__st6"/></g><g id="prefix__EyesOpen"><defs><path id="prefix__SVGID_7_" d="M10.9 29h36v8.9h-36z"/></defs><clipPath id="prefix__SVGID_8_"><use overflow="visible" xlink:href="#prefix__SVGID_7_"/></clipPath><g clip-path="url(#prefix__SVGID_8_)"><circle cx="19.7" cy="30.3" r="6.5" class="prefix__st7"/><circle cx="19.7" cy="30.3" r="3.3" class="prefix__st8"/><circle cx="38.2" cy="30.3" r="6.5" class="prefix__st7"/><circle cx="38.2" cy="30.3" r="3.3" class="prefix__st8"/><circle cx="19.7" cy="30.3" r="1.3" class="prefix__st9"/><circle cx="38.5" cy="30.3" r="1.3" class="prefix__st9"/></g></g><g id="prefix__EyesClosed"><defs><path id="prefix__SVGID_9_" d="M10.9 21h36v8h-36z"/></defs><clipPath id="prefix__SVGID_10_"><use overflow="visible" xlink:href="#prefix__SVGID_9_"/></clipPath><g clip-path="url(#prefix__SVGID_10_)"><circle cx="19.7" cy="30.3" r="6.5" class="prefix__st16"/><circle cx="38.2" cy="30.3" r="6.5" class="prefix__st16"/></g></g></g></svg>