<svg xmlns="http://www.w3.org/2000/svg" xmlns:xlink="http://www.w3.org/1999/xlink" id="Layer_1" x="0" y="0" version="1.1" viewBox="0 0 30 30" xml:space="preserve" style="enable-background:new 0 0 30 30"><style type="text/css">.st0{fill:#fff}</style><g><path d="M11.1,9.6h6.7c0.5,0,0.9-0.4,0.9-0.9V0h-7.6V9.6z" class="st0"/><path d="M29.1,5.5l-4.5-4.5C23.9,0.3,23.1,0,22.2,0h-1.6v8.7c0,1.6-1.3,2.9-2.9,2.9H8.2c-1.6,0-2.9-1.3-2.9-2.9V0h-2 C1.4,0,0,1.4,0,3.2v23.5C0,28.6,1.4,30,3.2,30h23.5c1.8,0,3.2-1.4,3.2-3.2v-19C30,6.9,29.7,6.1,29.1,5.5z M24.8,28.3H5.2V16.4 c0-1.5,1.2-2.7,2.7-2.7H22c1.5,0,2.7,1.2,2.7,2.7V28.3z" class="st0"/><path d="M7.3,0v8.7c0,0.5,0.4,0.9,0.9,0.9H9V0H7.3z" class="st0"/></g></svg>